<svg width="32" height="32" viewBox="0 0 32 32" fill="none" xmlns="http://www.w3.org/2000/svg">
  <defs>
    <linearGradient id="jarvis-gradient" x1="0%" y1="0%" x2="100%" y2="100%">
      <stop offset="0%" style="stop-color:#0ea5e9;stop-opacity:1" />
      <stop offset="100%" style="stop-color:#0284c7;stop-opacity:1" />
    </linearGradient>
  </defs>
  <circle cx="16" cy="16" r="14" fill="url(#jarvis-gradient)" />
  <path d="M12 10C12 8.89543 12.8954 8 14 8H18C19.1046 8 20 8.89543 20 10V12C20 13.1046 19.1046 14 18 14H14C12.8954 14 12 13.1046 12 12V10Z" fill="white" />
  <path d="M10 18C10 16.8954 10.8954 16 12 16H20C21.1046 16 22 16.8954 22 18V22C22 23.1046 21.1046 24 20 24H12C10.8954 24 10 23.1046 10 22V18Z" fill="white" />
  <circle cx="14" cy="11" r="1" fill="#0ea5e9" />
  <circle cx="18" cy="11" r="1" fill="#0ea5e9" />
</svg>
